<?xml version="1.0" standalone="no"?>
<!DOCTYPE svg PUBLIC "-//W3C//DTD SVG 20010904//EN"
 "http://www.w3.org/TR/2001/REC-SVG-20010904/DTD/svg10.dtd">
<svg version="1.0" xmlns="http://www.w3.org/2000/svg"
 width="700.000000pt" height="700.000000pt" viewBox="0 0 700.000000 700.000000"
 preserveAspectRatio="xMidYMid meet">
<metadata>
Created by potrace 1.14, written by Peter Selinger 2001-2017
</metadata>
<g transform="translate(0.000000,700.000000) scale(0.100000,-0.100000)"
fill="#000000" stroke="none">
<path d="M3446 6133 c-1 -1 -556 -3 -1234 -3 -798 -1 -1243 -5 -1264 -11 -18
-6 -37 -11 -43 -13 -37 -8 -144 -78 -198 -130 -67 -64 -105 -121 -139 -208
-20 -51 -21 -75 -25 -563 -2 -280 -3 -620 -3 -755 3 -892 -1 -2465 -6 -2469
-3 -3 -55 -6 -115 -7 -60 -1 -122 -5 -137 -10 -15 -4 -30 -7 -33 -6 -4 1 -13
-13 -20 -31 -11 -24 -14 -96 -14 -297 0 -146 3 -278 7 -295 16 -64 51 -143 87
-195 47 -67 203 -207 241 -216 3 0 19 -6 35 -13 17 -7 38 -14 48 -16 9 -2 22
-7 29 -11 6 -4 75 -9 152 -11 252 -5 5450 -3 5486 3 89 15 223 87 310 166 72
66 152 214 167 308 2 14 6 138 9 277 7 348 9 346 -200 346 l-125 1 -1 425 c0
234 -1 1079 -3 1876 l-2 1450 -42 87 c-40 81 -106 162 -183 223 -38 31 -137
75 -189 85 -25 5 -505 9 -1066 10 -561 0 -1134 2 -1273 3 -140 1 -255 1 -256
0z m2504 -244 c101 -22 213 -118 249 -214 12 -31 19 -60 16 -64 -2 -5 0 -23 6
-42 6 -21 10 -190 10 -447 -1 -294 2 -411 10 -406 8 4 8 1 1 -13 -7 -13 -11
-456 -11 -1367 0 -742 -3 -1351 -6 -1355 -4 -3 -1233 -6 -2731 -6 l-2724 -1
-1 246 c-3 1128 1 3297 6 3332 4 24 8 52 10 63 16 129 159 266 284 273 19 2
37 5 39 7 7 6 4812 0 4842 -6z m-3489 -4148 l275 -1 18 -57 c44 -141 140 -256
267 -320 104 -53 123 -55 488 -52 371 2 399 6 506 71 64 38 152 129 174 179
10 21 20 37 23 34 5 -5 42 99 43 119 0 18 55 24 212 26 155 2 2056 3 2080 1
17 -1 8 -308 -9 -336 -3 -6 -9 -26 -13 -45 -17 -80 -153 -209 -247 -235 -5 -2
-9 -3 -10 -5 -2 -1 -28 -5 -58 -8 -60 -8 -5334 -10 -5415 -3 -27 3 -57 8 -65
11 -129 58 -208 129 -252 227 -24 55 -28 87 -34 255 l-4 137 37 3 c21 2 414 2
873 1 459 -1 959 -2 1111 -2z m1541 -4 c12 -3 -50 -89 -85 -118 -31 -26 -90
-55 -132 -66 -11 -3 -117 -7 -235 -10 -241 -6 -348 5 -417 40 -47 25 -123 104
-127 133 -3 18 9 19 188 24 174 5 791 2 808 -3z"/>
<path d="M1032 5683 c-53 -10 -50 73 -50 -1744 0 -1626 0 -1687 18 -1714 10
-16 27 -30 37 -33 10 -2 1121 -5 2468 -6 l2450 -3 31 31 31 31 1 1696 0 1696
-23 27 -23 27 -2458 -2 c-1353 -1 -2469 -4 -2482 -6z m4758 -295 c3 -518 -1
-2962 -4 -2967 -2 -3 -1032 -6 -2288 -6 l-2283 0 -5 205 c-3 113 -8 210 -13
217 -4 6 -3 14 3 18 7 4 10 406 10 1218 0 667 0 1251 0 1300 l0 87 2290 0
2290 0 0 -72z"/>
<path d="M3384 4591 c-5 -4 -28 -14 -51 -21 -24 -7 -43 -16 -43 -21 0 -4 -10
-9 -23 -13 -22 -5 -122 -99 -153 -143 -35 -52 -54 -134 -54 -237 0 -116 15
-176 60 -241 37 -53 128 -145 144 -145 7 0 17 -5 23 -11 31 -31 118 -48 229
-45 100 3 117 6 178 35 88 42 163 117 207 206 34 69 34 71 34 205 0 127 -2
138 -28 194 -46 96 -144 181 -262 227 -34 14 -248 22 -261 10z m196 -249 c43
-17 95 -77 112 -128 9 -27 12 -50 7 -52 -5 -2 -5 -11 0 -21 10 -18 -25 -101
-57 -133 -52 -53 -161 -68 -235 -33 -33 15 -109 95 -92 95 4 0 2 7 -5 15 -11
14 -14 40 -11 113 2 32 61 110 103 135 32 19 52 23 97 21 31 -1 67 -7 81 -12z"/>
<path d="M2911 3501 c-47 -8 -74 -47 -75 -110 -2 -71 23 -102 90 -110 97 -12
1169 -5 1192 8 45 24 62 114 33 169 -24 45 -26 46 -631 47 -316 1 -590 -1
-609 -4z"/>
</g>
</svg>
