<svg id="svg" version="1.1" xmlns="http://www.w3.org/2000/svg" xmlns:xlink="http://www.w3.org/1999/xlink" width="48"
     height="48" viewBox="0, 0, 400,400">
    <g id="svgg">
        <path id="path0"
              d="M12.480 296.880 C 11.861 297.499,11.783 322.400,12.400 322.400 C 12.620 322.400,12.800 323.030,12.800 323.800 C 12.800 324.570,12.941 325.200,13.113 325.200 C 13.285 325.200,13.466 325.695,13.516 326.300 C 13.566 326.905,13.785 327.460,14.003 327.533 C 14.222 327.607,14.400 328.202,14.400 328.857 C 14.400 329.549,14.568 329.944,14.800 329.800 C 15.020 329.664,15.200 329.913,15.200 330.353 C 15.200 330.793,15.380 331.264,15.600 331.400 C 15.820 331.536,16.000 331.957,16.000 332.335 C 16.000 332.714,16.360 333.283,16.800 333.600 C 17.240 333.917,17.603 334.362,17.607 334.588 C 17.623 335.472,23.979 342.400,24.774 342.400 C 25.005 342.400,25.418 342.760,25.693 343.200 C 25.968 343.640,26.430 344.000,26.720 344.000 C 27.010 344.000,27.136 344.180,27.000 344.400 C 26.864 344.620,27.051 344.800,27.415 344.800 C 28.086 344.800,30.489 346.310,30.733 346.886 C 30.807 347.058,31.212 347.200,31.633 347.200 C 32.055 347.200,32.400 347.341,32.400 347.513 C 32.400 347.685,32.895 347.866,33.500 347.916 C 34.105 347.966,34.660 348.185,34.733 348.403 C 34.807 348.622,35.392 348.800,36.033 348.800 C 36.675 348.800,37.200 348.980,37.200 349.200 C 37.200 349.420,37.819 349.600,38.576 349.600 C 39.333 349.600,40.064 349.780,40.200 350.000 C 40.498 350.482,359.600 350.569,359.600 350.087 C 359.600 349.915,360.095 349.738,360.700 349.692 C 362.284 349.574,365.200 348.680,365.200 348.313 C 365.200 348.141,365.481 348.000,365.825 348.000 C 366.706 348.000,371.600 345.592,371.600 345.158 C 371.600 344.961,371.990 344.800,372.467 344.800 C 372.943 344.800,373.222 344.689,373.086 344.552 C 372.771 344.238,373.789 343.200,374.411 343.200 C 374.669 343.200,375.761 342.299,376.840 341.198 C 377.918 340.097,378.804 339.332,378.809 339.498 C 378.814 339.664,379.105 339.218,379.456 338.506 C 379.807 337.794,380.253 337.309,380.447 337.429 C 380.641 337.549,380.800 337.367,380.800 337.024 C 380.800 336.681,380.950 336.400,381.132 336.400 C 381.315 336.400,381.720 335.905,382.032 335.300 C 382.344 334.695,382.689 334.110,382.799 334.000 C 383.328 333.473,384.800 330.416,384.800 329.846 C 384.800 329.490,384.980 329.200,385.200 329.200 C 385.420 329.200,385.600 328.851,385.600 328.424 C 385.600 327.997,385.780 327.536,386.000 327.400 C 386.220 327.264,386.400 326.713,386.400 326.176 C 386.400 325.639,386.561 325.200,386.758 325.200 C 387.737 325.200,388.517 298.105,387.571 296.965 C 386.927 296.189,13.255 296.105,12.480 296.880 M156.167 300.643 C 156.538 300.785,156.800 301.354,156.800 302.019 C 156.800 302.643,156.980 303.264,157.200 303.400 C 157.420 303.536,157.601 304.042,157.601 304.524 C 157.602 305.006,157.966 305.996,158.410 306.724 C 158.854 307.452,159.113 308.217,158.985 308.424 C 158.857 308.631,158.954 308.800,159.200 308.800 C 159.446 308.800,159.545 308.965,159.421 309.166 C 159.297 309.367,159.357 309.592,159.555 309.666 C 159.923 309.803,161.053 311.566,162.270 313.900 C 162.643 314.615,163.110 315.200,163.307 315.200 C 163.833 315.200,166.368 317.899,166.097 318.170 C 165.970 318.296,166.267 318.400,166.757 318.400 C 167.249 318.400,167.537 318.579,167.400 318.800 C 167.264 319.020,167.433 319.200,167.776 319.200 C 168.119 319.200,168.400 319.352,168.400 319.537 C 168.400 319.723,169.255 320.306,170.300 320.835 C 171.345 321.363,172.447 322.030,172.748 322.317 C 173.050 322.604,173.815 322.943,174.448 323.070 C 175.082 323.196,175.600 323.437,175.600 323.605 C 175.600 323.868,177.772 324.497,179.000 324.591 C 179.220 324.607,179.605 324.749,179.855 324.906 C 180.417 325.259,219.311 325.071,221.078 324.707 C 221.781 324.562,223.311 324.009,224.478 323.477 C 225.645 322.945,226.989 322.388,227.464 322.240 C 227.939 322.091,228.546 321.706,228.813 321.385 C 229.080 321.063,229.596 320.800,229.961 320.800 C 230.325 320.800,230.883 320.440,231.200 320.000 C 231.517 319.560,232.017 319.200,232.312 319.200 C 232.606 319.200,232.736 319.020,232.600 318.800 C 232.464 318.580,232.567 318.400,232.829 318.400 C 233.091 318.400,233.891 317.779,234.607 317.020 C 235.322 316.262,236.033 315.767,236.187 315.920 C 236.341 316.074,236.407 316.016,236.333 315.791 C 236.260 315.567,236.853 314.577,237.650 313.591 C 239.336 311.508,240.477 309.410,240.117 309.051 C 239.979 308.913,240.177 308.800,240.557 308.800 C 240.937 308.800,241.156 308.652,241.044 308.472 C 240.933 308.291,241.192 307.567,241.621 306.862 C 242.049 306.157,242.400 305.135,242.400 304.590 C 242.400 304.046,242.580 303.600,242.800 303.600 C 243.020 303.600,243.200 303.096,243.200 302.480 C 243.200 300.279,239.351 300.400,309.480 300.400 L 374.800 300.400 374.800 307.576 C 374.800 311.929,374.643 314.850,374.400 315.000 C 374.180 315.136,374.000 316.306,374.000 317.600 C 374.000 318.894,373.820 320.064,373.600 320.200 C 373.380 320.336,373.200 320.876,373.200 321.400 C 373.200 321.924,373.020 322.464,372.800 322.600 C 372.580 322.736,372.400 323.204,372.400 323.640 C 372.400 324.396,372.180 324.767,370.800 326.342 C 370.470 326.719,369.691 327.771,369.068 328.681 C 368.445 329.591,367.185 330.845,366.268 331.468 C 365.351 332.091,364.374 332.813,364.098 333.074 C 363.821 333.334,363.236 333.662,362.798 333.801 C 362.359 333.940,362.000 334.222,362.000 334.427 C 362.000 334.632,361.651 334.800,361.224 334.800 C 360.797 334.800,360.336 334.980,360.200 335.200 C 360.064 335.420,359.524 335.600,359.000 335.600 C 358.476 335.600,357.936 335.780,357.800 336.000 C 357.664 336.220,356.494 336.400,355.200 336.400 C 353.906 336.400,352.736 336.580,352.600 336.800 C 352.257 337.355,47.200 337.355,47.200 336.800 C 47.200 336.574,46.067 336.400,44.600 336.400 C 43.133 336.400,42.000 336.226,42.000 336.000 C 42.000 335.780,41.586 335.600,41.080 335.600 C 40.026 335.600,38.008 334.747,38.003 334.300 C 38.001 334.135,37.730 334.000,37.400 334.000 C 37.070 334.000,36.800 333.820,36.800 333.600 C 36.800 333.380,36.530 333.200,36.200 333.200 C 35.870 333.200,35.600 333.020,35.600 332.800 C 35.600 332.580,35.340 332.400,35.022 332.400 C 34.449 332.400,30.400 328.552,30.400 328.007 C 30.400 327.850,30.085 327.350,29.700 326.895 C 29.315 326.440,28.714 325.724,28.365 325.305 C 28.016 324.886,27.482 323.701,27.178 322.672 C 26.874 321.642,26.485 320.800,26.313 320.800 C 26.141 320.800,26.000 319.641,26.000 318.224 C 26.000 316.807,25.820 315.536,25.600 315.400 C 25.357 315.250,25.200 312.263,25.200 307.776 L 25.200 300.400 90.367 300.400 C 126.209 300.400,155.819 300.509,156.167 300.643 M229.200 300.725 C 229.200 300.903,228.840 301.436,228.400 301.908 C 227.960 302.380,227.600 302.954,227.600 303.183 C 227.600 303.412,227.409 303.600,227.176 303.600 C 226.943 303.600,226.864 303.780,227.000 304.000 C 227.136 304.220,227.027 304.400,226.757 304.400 C 226.487 304.400,226.378 304.511,226.514 304.648 C 226.650 304.784,226.545 305.122,226.281 305.399 C 226.016 305.675,225.535 306.284,225.212 306.751 C 224.888 307.218,224.369 307.600,224.059 307.600 C 223.748 307.600,223.158 307.988,222.747 308.461 C 222.336 308.935,222.000 309.184,222.000 309.015 C 222.000 308.846,221.550 309.003,221.000 309.363 C 220.450 309.724,220.000 309.896,220.000 309.747 C 220.000 309.598,219.682 309.763,219.294 310.115 C 218.463 310.867,215.690 311.554,213.968 311.435 C 213.300 311.389,212.664 311.497,212.553 311.675 C 212.322 312.050,187.859 312.125,187.486 311.753 C 187.350 311.617,186.224 311.446,184.985 311.373 C 183.745 311.300,182.476 311.029,182.165 310.771 C 181.854 310.513,181.600 310.418,181.600 310.559 C 181.600 310.701,180.925 310.472,180.100 310.051 C 179.275 309.630,178.451 309.278,178.270 309.269 C 178.088 309.260,177.617 308.881,177.223 308.426 C 176.829 307.972,176.289 307.600,176.025 307.600 C 175.475 307.600,174.400 306.623,174.400 306.124 C 174.400 305.941,173.773 305.073,173.008 304.196 C 171.767 302.774,171.513 302.247,171.634 301.345 C 171.653 301.204,171.428 300.937,171.134 300.751 C 170.840 300.564,183.752 300.410,199.900 300.406 C 216.015 300.403,229.200 300.546,229.200 300.725 "
              stroke="none" fill="#33b2ec" fill-rule="evenodd"></path>
        <path id="path1"
              d="M43.600 236.685 C 43.457 237.032,41.615 237.184,37.100 237.221 L 30.800 237.274 30.800 262.237 L 30.800 287.200 23.680 287.200 C 15.908 287.200,15.298 287.335,13.467 289.466 C 12.209 290.930,11.222 298.070,12.440 296.900 C 13.187 296.182,386.802 296.162,387.520 296.880 C 388.445 297.805,388.129 292.017,387.169 290.442 C 385.265 287.319,384.871 287.200,376.426 287.200 L 369.200 287.200 369.200 262.833 C 369.200 249.431,369.088 238.174,368.951 237.817 C 368.735 237.255,367.868 237.176,362.351 237.221 L 356.000 237.272 356.000 262.236 L 356.000 287.200 200.003 287.200 L 44.006 287.200 43.903 261.700 C 43.846 247.675,43.710 236.418,43.600 236.685 M343.600 236.685 C 343.457 237.032,341.615 237.184,337.100 237.221 L 330.800 237.274 330.800 249.637 L 330.800 262.000 200.000 262.000 L 69.200 262.000 69.200 250.233 C 69.200 235.535,70.055 237.158,62.351 237.221 L 56.000 237.272 56.000 254.636 C 56.000 265.945,56.139 272.000,56.400 272.000 C 56.620 272.000,56.800 272.239,56.800 272.530 C 56.800 273.217,58.576 274.890,58.930 274.537 C 59.078 274.388,59.200 274.477,59.200 274.733 C 59.200 275.088,92.976 275.200,199.941 275.200 L 340.681 275.200 341.941 273.997 C 342.633 273.335,343.200 272.630,343.200 272.430 C 343.200 272.230,343.382 272.006,343.604 271.932 C 343.871 271.843,343.973 265.725,343.904 253.999 C 343.847 244.209,343.710 236.418,343.600 236.685 "
              stroke="none" fill="#6f98ec" fill-rule="evenodd"></path>
        <path id="path2"
              d="M211.206 162.700 C 211.203 163.195,211.380 163.600,211.600 163.600 C 212.101 163.600,212.101 163.176,211.600 162.400 C 211.286 161.915,211.211 161.972,211.206 162.700 M224.167 166.143 C 223.948 166.713,223.100 166.800,217.757 166.800 C 213.690 166.800,211.600 166.944,211.600 167.224 C 211.600 167.457,211.456 167.558,211.281 167.450 C 210.835 167.174,210.302 167.611,209.449 168.949 C 208.976 169.693,208.908 169.994,209.259 169.802 C 209.822 169.494,208.440 170.749,206.515 172.295 C 205.902 172.787,205.010 173.192,204.533 173.195 C 204.057 173.198,203.605 173.384,203.530 173.610 C 203.342 174.173,196.665 174.194,196.477 173.632 C 196.398 173.394,195.932 173.200,195.442 173.200 C 194.952 173.200,194.176 172.851,193.718 172.424 C 193.260 171.997,192.821 171.704,192.743 171.772 C 192.664 171.840,192.150 171.446,191.600 170.895 C 191.050 170.345,190.870 170.041,191.200 170.219 C 191.530 170.398,191.260 169.994,190.600 169.321 C 189.940 168.648,189.164 167.802,188.876 167.440 C 188.588 167.078,188.183 166.887,187.976 167.015 C 187.769 167.143,187.597 166.922,187.594 166.524 C 187.590 166.037,187.488 165.957,187.282 166.280 C 186.977 166.760,176.051 167.125,175.327 166.680 C 175.147 166.569,174.956 167.080,174.902 167.817 C 174.848 168.553,174.986 169.268,175.209 169.405 C 175.431 169.543,175.510 169.823,175.383 170.027 C 175.257 170.231,175.421 170.780,175.747 171.245 C 176.073 171.711,176.233 172.371,176.102 172.712 C 175.945 173.119,176.024 173.232,176.332 173.042 C 176.643 172.850,176.800 173.097,176.800 173.776 C 176.800 174.339,176.980 174.800,177.200 174.800 C 177.420 174.800,177.600 174.978,177.600 175.197 C 177.600 175.707,180.036 178.900,181.363 180.131 C 181.926 180.653,182.270 181.197,182.127 181.340 C 181.984 181.483,182.043 181.600,182.258 181.600 C 182.473 181.600,182.998 181.920,183.425 182.311 C 184.785 183.558,186.706 184.800,187.273 184.800 C 187.576 184.800,188.083 185.160,188.400 185.600 C 188.739 186.070,189.435 186.400,190.088 186.400 C 190.700 186.400,191.200 186.580,191.200 186.800 C 191.200 187.020,191.740 187.200,192.400 187.200 C 193.060 187.200,193.600 187.371,193.600 187.581 C 193.600 187.811,196.094 187.914,199.900 187.842 C 206.242 187.722,208.800 187.409,208.800 186.755 C 208.800 186.560,209.090 186.400,209.444 186.400 C 210.571 186.400,214.944 183.868,216.515 182.306 C 217.349 181.478,218.198 180.800,218.401 180.800 C 218.605 180.800,218.957 180.454,219.183 180.031 C 219.410 179.608,219.833 179.023,220.124 178.731 C 220.618 178.235,222.952 174.442,223.035 174.000 C 223.055 173.890,223.397 173.080,223.794 172.200 C 224.191 171.320,224.540 170.240,224.570 169.800 C 224.599 169.360,224.741 168.811,224.885 168.581 C 225.185 168.101,225.029 166.095,224.663 165.730 C 224.529 165.595,224.305 165.781,224.167 166.143 M30.898 201.589 L 31.000 237.280 37.188 237.221 C 41.517 237.180,43.468 237.018,43.682 236.681 C 43.850 236.417,43.991 220.540,43.994 201.400 L 44.001 166.600 37.966 166.720 C 33.763 166.804,31.759 166.698,31.363 166.370 C 30.874 165.963,30.810 170.803,30.898 201.589 M68.800 166.400 C 68.800 166.649,66.533 166.800,62.800 166.800 C 58.844 166.800,56.800 166.944,56.800 167.224 C 56.800 167.457,56.619 167.535,56.398 167.399 C 56.129 167.233,56.030 178.787,56.098 202.214 L 56.200 237.278 62.461 237.222 C 67.249 237.179,68.771 237.287,68.929 237.683 C 69.043 237.967,69.151 221.955,69.168 202.100 C 69.186 182.245,69.110 166.000,69.000 166.000 C 68.890 166.000,68.800 166.180,68.800 166.400 M330.898 201.589 L 331.000 237.280 337.188 237.221 C 341.517 237.180,343.468 237.018,343.682 236.681 C 343.850 236.417,343.991 220.540,343.994 201.400 L 344.001 166.600 337.966 166.720 C 333.763 166.804,331.759 166.698,331.363 166.370 C 330.874 165.963,330.810 170.803,330.898 201.589 M368.800 166.400 C 368.800 166.649,366.533 166.800,362.800 166.800 C 358.844 166.800,356.800 166.944,356.800 167.224 C 356.800 167.457,356.619 167.535,356.398 167.399 C 356.129 167.233,356.030 178.787,356.098 202.214 L 356.200 237.278 362.461 237.222 C 367.249 237.179,368.771 237.287,368.929 237.683 C 369.043 237.967,369.151 221.955,369.168 202.100 C 369.186 182.245,369.110 166.000,369.000 166.000 C 368.890 166.000,368.800 166.180,368.800 166.400 M165.000 200.030 C 164.780 200.245,164.240 200.733,163.800 201.114 C 163.360 201.496,162.775 202.209,162.500 202.699 C 161.964 203.654,161.796 209.600,162.305 209.600 C 162.473 209.600,162.788 210.005,163.005 210.500 C 163.222 210.995,163.805 211.578,164.300 211.795 C 164.795 212.012,165.200 212.327,165.200 212.495 C 165.200 212.663,180.860 212.800,200.000 212.800 C 219.140 212.800,234.800 212.663,234.800 212.495 C 234.800 212.327,235.205 212.012,235.700 211.795 C 236.195 211.578,236.778 210.995,236.995 210.500 C 237.212 210.005,237.527 209.600,237.695 209.600 C 237.863 209.600,238.000 208.070,238.000 206.200 C 238.000 204.200,237.835 202.800,237.600 202.800 C 237.380 202.800,237.200 202.607,237.200 202.371 C 237.200 201.854,236.568 201.225,235.114 200.295 C 233.854 199.488,165.819 199.232,165.000 200.030 "
              stroke="none" fill="#be73e0" fill-rule="evenodd"></path>
        <path id="path3"
              d="M31.004 131.133 C 30.471 132.526,30.803 165.905,31.354 166.362 C 31.731 166.675,33.810 166.786,37.854 166.711 L 43.800 166.600 43.800 148.800 L 43.800 131.000 37.504 130.800 C 32.488 130.641,31.166 130.708,31.004 131.133 M331.004 131.133 C 330.471 132.526,330.803 165.905,331.354 166.362 C 331.731 166.675,333.810 166.786,337.854 166.711 L 343.800 166.600 343.800 148.800 L 343.800 131.000 337.504 130.800 C 332.488 130.641,331.166 130.708,331.004 131.133 M56.257 132.300 C 55.828 134.893,55.960 167.128,56.400 167.400 C 56.620 167.536,56.800 167.457,56.800 167.224 C 56.800 166.944,58.831 166.800,62.757 166.800 C 67.820 166.800,68.751 166.705,68.957 166.167 C 69.453 164.874,69.228 131.788,68.720 131.280 C 68.390 130.950,66.403 130.800,62.372 130.800 L 56.505 130.800 56.257 132.300 M356.257 132.300 C 355.828 134.893,355.960 167.128,356.400 167.400 C 356.620 167.536,356.800 167.457,356.800 167.224 C 356.800 166.944,358.831 166.800,362.757 166.800 C 367.820 166.800,368.751 166.705,368.957 166.167 C 369.453 164.874,369.228 131.788,368.720 131.280 C 368.390 130.950,366.403 130.800,362.372 130.800 L 356.505 130.800 356.257 132.300 M193.600 137.584 C 193.600 137.813,193.238 138.000,192.795 138.000 C 192.352 138.000,191.677 138.168,191.295 138.374 C 190.913 138.579,190.015 138.983,189.300 139.271 C 188.585 139.560,188.000 139.931,188.000 140.098 C 188.000 140.264,187.640 140.400,187.200 140.400 C 186.760 140.400,186.400 140.580,186.400 140.800 C 186.400 141.020,186.162 141.200,185.872 141.200 C 184.564 141.200,177.131 149.200,176.858 150.902 C 176.831 151.068,176.537 151.855,176.205 152.651 C 175.872 153.447,175.600 154.526,175.600 155.049 C 175.600 155.572,175.413 156.000,175.185 156.000 C 174.915 156.000,174.794 158.051,174.837 161.900 C 174.873 165.145,174.979 167.592,175.072 167.338 C 175.188 167.022,177.084 166.859,181.108 166.821 C 185.198 166.782,187.067 166.619,187.281 166.283 C 187.489 165.956,187.590 166.034,187.594 166.524 C 187.597 166.922,187.765 167.145,187.968 167.020 C 188.170 166.895,188.620 167.077,188.968 167.425 C 189.779 168.236,189.826 167.332,189.028 166.279 C 188.644 165.773,188.431 165.707,188.314 166.059 C 188.204 166.389,188.055 166.321,187.878 165.859 C 187.716 165.437,187.768 165.256,188.007 165.405 C 188.665 165.811,188.885 164.572,188.441 162.963 C 188.152 161.915,188.152 161.299,188.441 160.950 C 188.671 160.674,188.810 160.122,188.750 159.724 C 188.490 157.992,191.773 153.667,194.354 152.339 C 194.929 152.043,195.510 151.651,195.644 151.468 C 196.028 150.942,203.165 151.005,203.698 151.538 C 203.952 151.792,204.439 152.000,204.780 152.000 C 205.392 152.001,206.906 153.106,208.738 154.888 C 210.563 156.662,212.529 163.015,211.463 163.693 C 211.123 163.909,211.133 163.989,211.500 163.994 C 211.775 163.997,212.000 164.191,212.000 164.424 C 212.000 164.657,211.820 164.736,211.600 164.600 C 211.369 164.457,211.200 164.836,211.200 165.496 C 211.200 166.125,211.014 166.826,210.787 167.053 C 210.502 167.338,210.565 167.467,210.987 167.467 C 211.324 167.467,211.600 167.317,211.600 167.133 C 211.600 166.950,214.371 166.800,217.757 166.800 C 223.214 166.800,223.944 166.722,224.179 166.111 C 224.405 165.521,224.496 165.507,224.815 166.011 C 225.056 166.392,225.190 164.754,225.194 161.367 C 225.197 158.488,225.065 155.998,224.900 155.833 C 224.735 155.668,224.584 155.233,224.565 154.867 C 224.511 153.808,223.474 151.395,221.970 148.827 C 221.050 147.255,217.200 142.875,217.200 143.400 C 217.200 143.557,216.678 143.126,216.040 142.442 C 215.401 141.759,214.591 141.200,214.240 141.200 C 213.888 141.200,213.600 141.050,213.600 140.868 C 213.600 140.544,212.431 139.898,210.400 139.100 C 209.850 138.884,209.087 138.548,208.705 138.353 C 208.323 138.159,207.548 138.000,206.982 138.000 C 206.416 138.000,206.054 137.836,206.178 137.636 C 206.309 137.424,203.732 137.250,200.001 137.220 C 195.806 137.186,193.600 137.312,193.600 137.584 "
              stroke="none" fill="#d764b2" fill-rule="evenodd"></path>
        <path id="path4"
              d="M55.600 50.000 C 55.270 50.213,54.505 50.391,53.900 50.394 C 53.295 50.397,52.800 50.580,52.800 50.800 C 52.800 51.020,52.260 51.200,51.600 51.200 C 50.940 51.200,50.400 51.380,50.400 51.600 C 50.400 51.820,50.040 52.000,49.600 52.000 C 49.160 52.000,48.800 52.180,48.800 52.400 C 48.800 52.620,48.440 52.800,48.000 52.800 C 47.560 52.800,47.200 52.980,47.200 53.200 C 47.200 53.420,46.906 53.600,46.547 53.600 C 46.188 53.600,45.603 53.916,45.247 54.303 C 44.891 54.689,44.108 55.258,43.507 55.567 C 42.905 55.875,42.312 56.448,42.188 56.839 C 42.064 57.230,41.431 57.785,40.781 58.073 C 40.131 58.360,39.600 58.745,39.600 58.929 C 39.600 59.113,38.925 59.924,38.100 60.731 C 37.275 61.539,36.345 62.695,36.032 63.300 C 35.720 63.905,35.315 64.400,35.132 64.400 C 34.950 64.400,34.800 64.760,34.800 65.200 C 34.800 65.640,34.620 66.000,34.400 66.000 C 34.180 66.000,34.000 66.360,34.000 66.800 C 34.000 67.240,33.820 67.600,33.600 67.600 C 33.380 67.600,33.200 67.960,33.200 68.400 C 33.200 68.840,33.020 69.200,32.800 69.200 C 32.580 69.200,32.400 69.740,32.400 70.400 C 32.400 71.060,32.240 71.600,32.044 71.600 C 31.107 71.600,30.314 94.796,31.152 97.696 C 31.441 98.699,31.536 98.792,31.564 98.100 C 31.621 96.683,43.445 96.683,43.718 98.100 C 43.813 98.595,43.916 95.276,43.946 90.724 C 43.979 85.698,44.157 82.350,44.400 82.200 C 44.620 82.064,44.800 80.793,44.800 79.376 C 44.800 77.925,44.975 76.800,45.200 76.800 C 45.420 76.800,45.600 76.350,45.600 75.800 C 45.600 75.250,45.780 74.800,46.000 74.800 C 46.220 74.800,46.400 74.440,46.400 74.000 C 46.400 73.560,46.580 73.200,46.800 73.200 C 47.020 73.200,47.200 72.930,47.200 72.600 C 47.200 72.270,47.380 72.000,47.600 72.000 C 47.820 72.000,48.000 71.816,48.000 71.591 C 48.000 71.367,48.986 70.197,50.191 68.991 C 51.397 67.786,52.567 66.800,52.791 66.800 C 53.016 66.800,53.200 66.620,53.200 66.400 C 53.200 66.180,53.470 66.000,53.800 66.000 C 54.130 66.000,54.400 65.820,54.400 65.600 C 54.400 65.380,54.760 65.200,55.200 65.200 C 55.640 65.200,56.000 65.020,56.000 64.800 C 56.000 64.580,56.450 64.400,57.000 64.400 C 57.550 64.400,58.000 64.220,58.000 64.000 C 58.000 63.778,59.067 63.600,60.400 63.600 C 61.733 63.600,62.800 63.422,62.800 63.200 C 62.800 62.934,108.800 62.800,200.000 62.800 C 291.200 62.800,337.200 62.934,337.200 63.200 C 337.200 63.422,338.267 63.600,339.600 63.600 C 340.933 63.600,342.000 63.778,342.000 64.000 C 342.000 64.220,342.450 64.400,343.000 64.400 C 343.550 64.400,344.000 64.580,344.000 64.800 C 344.000 65.020,344.360 65.200,344.800 65.200 C 345.240 65.200,345.600 65.380,345.600 65.600 C 345.600 65.820,345.870 66.000,346.200 66.000 C 346.530 66.000,346.800 66.180,346.800 66.400 C 346.800 66.620,346.984 66.800,347.209 66.800 C 347.741 66.800,352.000 71.059,352.000 71.591 C 352.000 71.816,352.180 72.000,352.400 72.000 C 352.620 72.000,352.800 72.270,352.800 72.600 C 352.800 72.930,352.980 73.200,353.200 73.200 C 353.420 73.200,353.600 73.560,353.600 74.000 C 353.600 74.440,353.780 74.800,354.000 74.800 C 354.220 74.800,354.400 75.250,354.400 75.800 C 354.400 76.350,354.580 76.800,354.800 76.800 C 355.025 76.800,355.200 77.925,355.200 79.376 C 355.200 80.793,355.380 82.064,355.600 82.200 C 355.841 82.349,356.011 85.336,356.028 89.724 C 356.044 93.726,356.211 97.360,356.400 97.800 C 356.694 98.484,356.748 98.499,356.772 97.900 C 356.815 96.829,368.644 96.829,368.924 97.900 C 369.025 98.285,369.128 93.256,369.154 86.724 C 369.183 79.187,369.054 74.757,368.800 74.600 C 368.580 74.464,368.400 73.733,368.400 72.976 C 368.400 72.219,368.220 71.600,368.000 71.600 C 367.780 71.600,367.600 71.060,367.600 70.400 C 367.600 69.740,367.420 69.200,367.200 69.200 C 366.980 69.200,366.800 68.840,366.800 68.400 C 366.800 67.960,366.620 67.600,366.400 67.600 C 366.180 67.600,366.000 67.240,366.000 66.800 C 366.000 66.360,365.820 66.000,365.600 66.000 C 365.380 66.000,365.200 65.640,365.200 65.200 C 365.200 64.760,365.050 64.400,364.868 64.400 C 364.685 64.400,364.280 63.905,363.968 63.300 C 363.655 62.695,362.725 61.539,361.900 60.731 C 361.075 59.924,360.400 59.069,360.400 58.831 C 360.400 58.594,360.174 58.400,359.897 58.400 C 359.621 58.400,358.843 57.799,358.170 57.065 C 357.496 56.331,356.372 55.392,355.672 54.979 C 354.973 54.566,354.400 54.086,354.400 53.914 C 354.400 53.741,354.040 53.600,353.600 53.600 C 353.160 53.600,352.800 53.420,352.800 53.200 C 352.800 52.980,352.440 52.800,352.000 52.800 C 351.560 52.800,351.200 52.620,351.200 52.400 C 351.200 52.180,350.840 52.000,350.400 52.000 C 349.960 52.000,349.600 51.820,349.600 51.600 C 349.600 51.380,349.060 51.200,348.400 51.200 C 347.740 51.200,347.200 51.020,347.200 50.800 C 347.200 50.580,346.581 50.400,345.824 50.400 C 345.067 50.400,344.336 50.220,344.200 50.000 C 343.864 49.457,56.441 49.457,55.600 50.000 M58.600 75.286 C 57.507 75.917,56.800 76.658,56.800 77.171 C 56.800 77.407,56.620 77.600,56.400 77.600 C 55.902 77.600,55.902 96.641,56.400 97.800 C 56.694 98.484,56.748 98.499,56.772 97.900 C 56.797 97.266,57.362 97.200,62.771 97.200 C 68.121 97.200,68.760 97.273,68.924 97.900 C 69.025 98.285,69.128 96.215,69.154 93.300 L 69.200 88.000 200.000 88.000 L 330.800 88.000 330.840 92.500 C 330.875 96.482,331.438 100.858,331.560 98.100 C 331.600 97.209,331.657 97.200,337.572 97.200 C 343.448 97.200,343.547 97.215,343.718 98.100 C 343.813 98.595,343.916 94.185,343.946 88.300 C 343.981 81.397,343.858 77.600,343.600 77.600 C 343.380 77.600,343.200 77.396,343.200 77.147 C 343.200 76.897,342.705 76.267,342.100 75.747 L 341.000 74.801 200.200 74.813 C 94.496 74.821,59.201 74.939,58.600 75.286 "
              stroke="none" fill="#ee5471" fill-rule="evenodd"></path>
        <path id="path5"
              d="M30.871 114.200 C 30.867 123.660,30.939 131.220,31.031 131.000 C 31.138 130.745,33.519 130.673,37.600 130.800 L 44.002 131.000 44.001 115.350 C 44.000 106.743,43.888 99.138,43.750 98.450 L 43.500 97.200 37.550 97.200 C 31.658 97.200,31.600 97.209,31.560 98.100 C 31.522 98.963,31.507 98.959,31.200 98.000 C 31.024 97.450,30.876 104.740,30.871 114.200 M56.088 115.000 C 56.106 124.900,56.195 132.505,56.287 131.900 L 56.453 130.800 62.347 130.800 C 66.397 130.800,68.390 130.950,68.720 131.280 C 69.231 131.791,69.450 99.972,68.948 98.100 C 68.614 96.854,56.822 96.660,56.772 97.900 C 56.748 98.499,56.694 98.484,56.400 97.800 C 56.202 97.340,56.070 104.640,56.088 115.000 M330.871 114.200 C 330.867 123.660,330.939 131.220,331.031 131.000 C 331.138 130.745,333.519 130.673,337.600 130.800 L 344.002 131.000 344.001 115.350 C 344.000 106.743,343.888 99.138,343.750 98.450 L 343.500 97.200 337.550 97.200 C 331.658 97.200,331.600 97.209,331.560 98.100 C 331.522 98.963,331.507 98.959,331.200 98.000 C 331.024 97.450,330.876 104.740,330.871 114.200 M356.088 115.000 C 356.106 124.900,356.195 132.505,356.287 131.900 L 356.453 130.800 362.347 130.800 C 366.397 130.800,368.390 130.950,368.720 131.280 C 369.231 131.791,369.450 99.972,368.948 98.100 C 368.614 96.854,356.822 96.660,356.772 97.900 C 356.748 98.499,356.694 98.484,356.400 97.800 C 356.202 97.340,356.070 104.640,356.088 115.000 "
              stroke="none" fill="#dc5c9e" fill-rule="evenodd"></path>
        <path id="path6"
              d="M13.782 288.540 C 12.871 289.542,12.746 290.146,13.623 289.311 C 14.136 288.822,14.476 288.345,14.378 288.251 C 14.280 288.158,14.012 288.288,13.782 288.540 M174.400 306.225 C 174.400 306.525,175.473 307.600,175.771 307.600 C 176.280 307.600,175.951 306.962,175.200 306.493 C 174.760 306.218,174.400 306.098,174.400 306.225 M224.412 306.784 C 224.088 306.989,223.944 307.278,224.093 307.426 C 224.241 307.574,224.653 307.404,225.010 307.048 C 225.713 306.344,225.357 306.187,224.412 306.784 M212.160 311.665 C 212.063 311.822,212.478 311.860,213.083 311.751 C 214.567 311.482,214.801 311.176,213.436 311.289 C 212.831 311.339,212.257 311.508,212.160 311.665 "
              stroke="none" fill="#3488f0" fill-rule="evenodd"></path>
    </g>
</svg>
